# Max2Obj Version 4.0 Mar 10th, 2001
#
mtllib ./交换机.mtl
g
# object 交换机 to come ...
#
v  -0.627510 0.008876 -0.415606
v  0.627510 0.008876 -0.415606
v  0.627510 0.008876 0.415606
v  -0.627510 0.008876 0.415606
v  0.627510 0.045363 0.452093
v  0.627510 1.229023 0.452093
v  -0.627510 1.229023 0.452093
v  -0.627510 0.045363 0.452093
v  -0.663997 1.229023 0.415606
v  -0.663997 1.229023 -0.415606
v  -0.663997 0.045363 -0.415606
v  -0.663997 0.045363 0.415606
v  0.663997 0.045363 -0.415606
v  0.663997 1.229023 -0.415606
v  0.663997 1.229023 0.415606
v  0.663997 0.045363 0.415606
v  0.627510 1.265510 0.415606
v  0.627510 1.265510 -0.415606
v  -0.627510 1.265510 -0.415606
v  -0.627510 1.265510 0.415606
v  0.627510 1.229023 -0.452093
v  0.627510 0.045363 -0.452093
v  -0.627510 0.045363 -0.452093
v  -0.627510 1.229023 -0.452093
v  0.319634 0.349978 0.454038
v  0.151994 0.349978 0.454038
v  0.054762 0.623790 0.454038
v  0.150876 0.894250 0.454038
v  0.319634 0.894250 0.454038
v  0.319634 0.830546 0.454038
v  0.434746 0.945659 0.454038
v  0.319634 1.059654 0.454038
v  0.319634 0.994834 0.454038
v  0.078232 0.995951 0.454038
v  0.000000 0.776901 0.454038
v  -0.078232 0.995951 0.454038
v  -0.319634 0.994834 0.454038
v  -0.319634 1.059654 0.454038
v  -0.434746 0.945659 0.454038
v  -0.319634 0.830546 0.454038
v  -0.319634 0.894250 0.454038
v  -0.150876 0.894250 0.454038
v  -0.054762 0.623790 0.454038
v  -0.153111 0.349978 0.454038
v  -0.319634 0.349978 0.454038
v  -0.319634 0.414799 0.454038
v  -0.434746 0.299686 0.454038
v  -0.319634 0.184574 0.454038
v  -0.319634 0.248277 0.454038
v  -0.079350 0.248277 0.454038
v  0.000000 0.470679 0.454038
v  0.079350 0.248277 0.454038
v  0.319634 0.248277 0.454038
v  0.319634 0.184574 0.454038
v  0.434746 0.299686 0.454038
v  0.319634 0.414799 0.454038
v  0.108687 0.775531 0.454038
v  0.334424 1.267127 -0.242328
v  0.245875 1.267127 -0.330018
v  0.245875 1.267127 -0.280155
v  0.116920 1.267127 0.215893
v  0.042125 1.267127 0.005266
v  0.061039 1.267127 0.294126
v  -0.245875 1.267127 -0.280155
v  -0.245875 1.267127 -0.202782
v  -0.116060 1.267127 -0.202782
v  0.060179 1.267127 -0.281015
v  0.083606 1.267127 -0.111459
v  0.116060 1.267127 -0.202782
v  0.245875 1.267127 -0.202782
v  0.245875 1.267127 -0.153779
v  0.245875 1.267127 0.294126
v  0.245875 1.267127 0.343129
v  0.334424 1.267127 0.254580
v  0.245875 1.267127 0.215893
v  0.245875 1.267127 0.166031
v  -0.334424 1.267127 0.254580
v  -0.245875 1.267127 0.343129
v  -0.245875 1.267127 0.294126
v  -0.117779 1.267127 0.215893
v  -0.061039 1.267127 0.294126
v  0.000000 1.267127 0.123046
v  -0.042125 1.267127 0.005266
v  -0.245875 1.267127 0.215893
v  -0.245875 1.267127 0.166031
v  -0.245875 1.267127 -0.330018
v  -0.334424 1.267127 -0.242328
v  0.000000 1.267127 -0.112513
v  -0.060179 1.267127 -0.281015
v  -0.245875 1.267127 -0.153779
# 90 vertices

vt  0.379209 0.759316 0.000000
vt  0.620791 0.759316 0.000000
vt  0.620791 0.990684 0.000000
vt  0.379209 0.990684 0.000000
vt  0.620791 0.007616 0.000000
vt  0.620791 0.242384 0.000000
vt  0.379209 0.242384 0.000000
vt  0.379209 0.007616 0.000000
vt  0.365684 0.242384 0.000000
vt  0.134316 0.242384 0.000000
vt  0.134316 0.007616 0.000000
vt  0.365684 0.007616 0.000000
vt  0.865684 0.007616 0.000000
vt  0.865684 0.242384 0.000000
vt  0.634316 0.242384 0.000000
vt  0.634316 0.007616 0.000000
vt  0.620791 0.259316 0.000000
vt  0.620791 0.490684 0.000000
vt  0.379209 0.490684 0.000000
vt  0.379209 0.259316 0.000000
vt  0.620791 0.507616 0.000000
vt  0.620791 0.742384 0.000000
vt  0.379209 0.742384 0.000000
vt  0.379209 0.507616 0.000000
vt  0.375000 0.990684 0.000000
vt  0.375000 0.759316 0.000000
vt  0.379209 0.000000 0.000000
vt  0.620791 0.000000 0.000000
vt  0.375000 0.007616 0.000000
vt  0.375000 0.242384 0.000000
vt  0.625000 0.990684 0.000000
vt  0.625000 0.759316 0.000000
vt  0.625000 0.007616 0.000000
vt  0.625000 0.242384 0.000000
vt  0.375000 0.259316 0.000000
vt  0.375000 0.490684 0.000000
vt  0.379209 0.250000 0.000000
vt  0.620791 0.250000 0.000000
vt  0.625000 0.259316 0.000000
vt  0.625000 0.490684 0.000000
vt  0.375000 0.507616 0.000000
vt  0.375000 0.742384 0.000000
vt  0.379209 0.500000 0.000000
vt  0.620791 0.500000 0.000000
vt  0.625000 0.507616 0.000000
vt  0.625000 0.742384 0.000000
vt  0.379209 0.750000 0.000000
vt  0.620791 0.750000 0.000000
vt  1.000000 0.869732 0.000000
vt  0.867609 1.000000 0.000000
vt  0.867609 0.925926 0.000000
vt  0.674807 0.189017 0.000000
vt  0.598603 0.402245 0.000000
vt  0.608130 0.072797 0.000000
vt  0.132391 0.925926 0.000000
vt  0.132391 0.810983 0.000000
vt  0.326478 0.810983 0.000000
vt  0.607487 0.927122 0.000000
vt  0.625000 0.675317 0.000000
vt  0.673522 0.810983 0.000000
vt  0.867609 0.810983 0.000000
vt  0.867609 0.738186 0.000000
vt  0.867609 0.072797 0.000000
vt  0.867609 0.000000 0.000000
vt  1.000000 0.131545 0.000000
vt  0.867609 0.189017 0.000000
vt  0.867609 0.263091 0.000000
vt  0.000000 0.131545 0.000000
vt  0.132391 0.000000 0.000000
vt  0.132391 0.072797 0.000000
vt  0.323907 0.189017 0.000000
vt  0.408740 0.072797 0.000000
vt  0.500000 0.326948 0.000000
vt  0.414338 0.439176 0.000000
vt  0.132391 0.189017 0.000000
vt  0.132391 0.263091 0.000000
vt  0.132391 1.000000 0.000000
vt  0.000000 0.869732 0.000000
vt  0.500000 0.676884 0.000000
vt  0.410026 0.927203 0.000000
vt  0.132391 0.738186 0.000000
vt  1.000000 0.869732 0.000000
vt  0.867609 1.000000 0.000000
vt  0.867609 0.925926 0.000000
vt  0.674807 0.189017 0.000000
vt  0.598603 0.402245 0.000000
vt  0.608130 0.072797 0.000000
vt  0.132391 0.925926 0.000000
vt  0.132391 0.810983 0.000000
vt  0.326478 0.810983 0.000000
vt  0.607487 0.927122 0.000000
vt  0.625000 0.675317 0.000000
vt  0.673522 0.810983 0.000000
vt  0.867609 0.810983 0.000000
vt  0.867609 0.738186 0.000000
vt  0.867609 0.072797 0.000000
vt  0.867609 0.000000 0.000000
vt  1.000000 0.131545 0.000000
vt  0.867609 0.189017 0.000000
vt  0.867609 0.263091 0.000000
vt  0.000000 0.131545 0.000000
vt  0.132391 0.000000 0.000000
vt  0.132391 0.072797 0.000000
vt  0.323907 0.189017 0.000000
vt  0.408740 0.072797 0.000000
vt  0.500000 0.326948 0.000000
vt  0.414338 0.439176 0.000000
vt  0.132391 0.189017 0.000000
vt  0.132391 0.263091 0.000000
vt  0.132391 1.000000 0.000000
vt  0.000000 0.869732 0.000000
vt  0.500000 0.676884 0.000000
vt  0.410026 0.927203 0.000000
vt  0.132391 0.738186 0.000000
vt  1.000000 0.869732 0.000000
vt  0.867609 1.000000 0.000000
vt  0.867609 0.925926 0.000000
vt  0.674807 0.189017 0.000000
vt  0.598603 0.402245 0.000000
vt  0.608130 0.072797 0.000000
vt  0.132391 0.925926 0.000000
vt  0.132391 0.810983 0.000000
vt  0.326478 0.810983 0.000000
vt  0.607487 0.927122 0.000000
vt  0.625000 0.675317 0.000000
vt  0.673522 0.810983 0.000000
vt  0.867609 0.810983 0.000000
vt  0.867609 0.738186 0.000000
vt  0.867609 0.072797 0.000000
vt  0.867609 0.000000 0.000000
vt  1.000000 0.131545 0.000000
vt  0.867609 0.189017 0.000000
vt  0.867609 0.263091 0.000000
vt  0.000000 0.131545 0.000000
vt  0.132391 0.000000 0.000000
vt  0.132391 0.072797 0.000000
vt  0.323907 0.189017 0.000000
vt  0.408740 0.072797 0.000000
vt  0.500000 0.326948 0.000000
vt  0.414338 0.439176 0.000000
vt  0.132391 0.189017 0.000000
vt  0.132391 0.263091 0.000000
vt  0.132391 1.000000 0.000000
vt  0.000000 0.869732 0.000000
vt  0.500000 0.676884 0.000000
vt  0.410026 0.927203 0.000000
vt  0.132391 0.738186 0.000000
# 147 texture vertices

vn  0.000000 -1.000000 -0.000000
vn  0.000000 -1.000000 -0.000000
vn  0.000000 -1.000000 -0.000000
vn  0.000000 -1.000000 -0.000000
vn  0.000000 0.000000 1.000000
vn  0.000000 0.000000 1.000000
vn  0.000000 0.000000 1.000000
vn  0.000000 0.000000 1.000000
vn  -1.000000 0.000000 -0.000000
vn  -1.000000 0.000000 -0.000000
vn  -1.000000 0.000000 -0.000000
vn  -1.000000 0.000000 -0.000000
vn  1.000000 0.000000 -0.000000
vn  1.000000 0.000000 -0.000000
vn  1.000000 0.000000 -0.000000
vn  1.000000 0.000000 -0.000000
vn  0.000000 1.000000 -0.000000
vn  0.000000 1.000000 -0.000000
vn  0.000000 1.000000 -0.000000
vn  0.000000 1.000000 -0.000000
vn  0.000000 0.000000 -1.000000
vn  0.000000 0.000000 -1.000000
vn  0.000000 0.000000 -1.000000
vn  0.000000 0.000000 -1.000000
vn  0.000000 0.000000 1.000000
vn  0.000000 0.000000 1.000000
vn  0.000000 0.000000 1.000000
vn  0.000000 0.000000 1.000000
vn  0.000000 0.000000 1.000000
vn  0.000000 0.000000 1.000000
vn  0.000000 0.000000 1.000000
vn  0.000000 0.000000 1.000000
vn  0.000000 0.000000 1.000000
vn  0.000000 0.000000 1.000000
vn  0.000000 0.000000 1.000000
vn  0.000000 0.000000 1.000000
vn  0.000000 0.000000 1.000000
vn  0.000000 0.000000 1.000000
vn  0.000000 0.000000 1.000000
vn  0.000000 0.000000 1.000000
vn  0.000000 0.000000 1.000000
vn  0.000000 0.000000 1.000000
vn  0.000000 0.000000 1.000000
vn  0.000000 0.000000 1.000000
vn  0.000000 0.000000 1.000000
vn  0.000000 0.000000 1.000000
vn  0.000000 0.000000 1.000000
vn  0.000000 0.000000 1.000000
vn  0.000000 0.000000 1.000000
vn  0.000000 0.000000 1.000000
vn  0.000000 0.000000 1.000000
vn  0.000000 0.000000 1.000000
vn  0.000000 0.000000 1.000000
vn  0.000000 0.000000 1.000000
vn  0.000000 0.000000 1.000000
vn  0.000000 0.000000 1.000000
vn  0.000000 0.000000 1.000000
vn  -0.000001 1.000000 0.000002
vn  0.000000 1.000000 -0.000000
vn  -0.000000 1.000000 0.000002
vn  0.000000 1.000000 -0.000000
vn  0.000000 1.000000 -0.000000
vn  0.000000 1.000000 -0.000000
vn  0.000000 1.000000 0.000002
vn  0.000001 1.000000 0.000002
vn  -0.000001 1.000000 0.000002
vn  0.000001 1.000000 0.000002
vn  0.000000 1.000000 0.000001
vn  0.000001 1.000000 0.000002
vn  -0.000001 1.000000 0.000002
vn  -0.000003 1.000000 -0.000000
vn  0.000000 1.000000 -0.000000
vn  0.000000 1.000000 -0.000000
vn  0.000000 1.000000 -0.000000
vn  0.000000 1.000000 -0.000000
vn  0.000000 1.000000 -0.000000
vn  0.000000 1.000000 -0.000000
vn  0.000000 1.000000 -0.000000
vn  0.000000 1.000000 -0.000000
vn  0.000000 1.000000 -0.000000
vn  0.000000 1.000000 -0.000000
vn  0.000000 1.000000 -0.000000
vn  0.000000 1.000000 -0.000000
vn  0.000000 1.000000 -0.000000
vn  0.000000 1.000000 -0.000000
vn  0.000000 1.000000 -0.000000
vn  0.000001 1.000000 0.000002
vn  -0.000000 1.000000 0.000001
vn  -0.000001 1.000000 0.000003
vn  0.000003 1.000000 -0.000000
# 90 vertex normals

g 交换机
usemtl MainMaterial_01
s 0
f 3/3/3 4/4/4 1/1/1 2/2/2
f 7/7/7 8/8/8 5/5/5 6/6/6
f 11/11/11 12/12/12 9/9/9 10/10/10
f 15/15/15 16/16/16 13/13/13 14/14/14
f 19/19/19 20/20/20 17/17/17 18/18/18
f 23/23/23 24/24/24 21/21/21 22/22/22
f 11/26/11 1/1/1 4/4/4 12/25/12
f 3/28/3 5/5/5 8/8/8 4/27/4
f 7/7/7 9/30/9 12/29/12 8/8/8
f 2/2/2 13/32/13 16/31/16 3/3/3
f 15/34/15 6/6/6 5/5/5 16/33/16
f 19/19/19 10/36/10 9/35/9 20/20/20
f 6/6/6 17/38/17 20/37/20 7/7/7
f 14/40/14 18/18/18 17/17/17 15/39/15
f 23/23/23 11/42/11 10/41/10 24/24/24
f 18/18/18 21/44/21 24/43/24 19/19/19
f 13/46/13 22/22/22 21/21/21 14/45/14
f 22/22/22 2/48/2 1/47/1 23/23/23
f 12/29/12 4/27/4 8/8/8
f 3/28/3 16/33/16 5/5/5
f 20/37/20 9/30/9 7/7/7
f 15/34/15 17/38/17 6/6/6
f 24/43/24 10/36/10 19/19/19
f 14/40/14 21/44/21 18/18/18
f 1/47/1 11/42/11 23/23/23
f 13/46/13 2/48/2 22/22/22
usemtl MainMaterial_02
s 2
f 31/49/31 32/50/32 33/51/33
f 26/52/26 27/53/27 52/54/52
f 37/55/37 41/56/41 42/57/42
f 34/58/34 57/59/57 28/60/28
f 29/61/29 30/62/30 31/49/31
f 31/49/31 33/51/33 29/61/29
f 28/60/28 29/61/29 33/51/33
f 33/51/33 34/58/34 28/60/28
f 53/63/53 54/64/54 55/65/55
f 53/63/53 25/66/25 26/52/26
f 26/52/26 52/54/52 53/63/53
f 55/65/55 56/67/56 25/66/25
f 25/66/25 53/63/53 55/65/55
f 47/68/47 48/69/48 49/70/49
f 44/71/44 50/72/50 51/73/51
f 27/53/27 43/74/43 51/73/51
f 27/53/27 51/73/51 52/54/52
f 51/73/51 43/74/43 44/71/44
f 49/70/49 50/72/50 44/71/44
f 45/75/45 46/76/46 47/68/47
f 47/68/47 49/70/49 45/75/45
f 44/71/44 45/75/45 49/70/49
f 37/55/37 38/77/38 39/78/39
f 42/57/42 43/74/43 35/79/35
f 42/57/42 35/79/35 36/80/36
f 42/57/42 36/80/36 37/55/37
f 39/78/39 40/81/40 41/56/41
f 41/56/41 37/55/37 39/78/39
f 27/53/27 57/59/57 35/79/35
f 27/53/27 35/79/35 43/74/43
f 34/58/34 35/79/35 57/59/57
f 58/115/58 59/116/59 60/117/60
f 61/118/61 62/119/62 63/120/63
f 64/121/64 65/122/65 66/123/66
f 67/124/67 68/125/68 69/126/69
f 70/127/70 71/128/71 58/115/58
f 58/115/58 60/117/60 70/127/70
f 69/126/69 70/127/70 60/117/60
f 60/117/60 67/124/67 69/126/69
f 72/129/72 73/130/73 74/131/74
f 72/129/72 75/132/75 61/118/61
f 61/118/61 63/120/63 72/129/72
f 74/131/74 76/133/76 75/132/75
f 75/132/75 72/129/72 74/131/74
f 77/134/77 78/135/78 79/136/79
f 80/137/80 81/138/81 82/139/82
f 62/119/62 83/140/83 82/139/82
f 62/119/62 82/139/82 63/120/63
f 82/139/82 83/140/83 80/137/80
f 79/136/79 81/138/81 80/137/80
f 84/141/84 85/142/85 77/134/77
f 77/134/77 79/136/79 84/141/84
f 80/137/80 84/141/84 79/136/79
f 64/121/64 86/143/86 87/144/87
f 66/123/66 83/140/83 88/145/88
f 66/123/66 88/145/88 89/146/89
f 66/123/66 89/146/89 64/121/64
f 87/144/87 90/147/90 65/122/65
f 65/122/65 64/121/64 87/144/87
f 62/119/62 68/125/68 88/145/88
f 62/119/62 88/145/88 83/140/83
f 67/124/67 88/145/88 68/125/68
# 88 faces

g
