<?xml version="1.0" encoding="utf-8"?>
<!-- Generator: Adobe Illustrator 16.0.0, SVG Export Plug-In . SVG Version: 6.00 Build 0)  -->
<!DOCTYPE svg PUBLIC "-//W3C//DTD SVG 1.1//EN" "http://www.w3.org/Graphics/SVG/1.1/DTD/svg11.dtd">
<svg version="1.1" id="图层_1" xmlns="http://www.w3.org/2000/svg" xmlns:xlink="http://www.w3.org/1999/xlink" x="0px" y="0px"
	 width="128px" height="128px" viewBox="0 0 128 128" enable-background="new 0 0 128 128" xml:space="preserve">
<linearGradient id="SVGID_1_" gradientUnits="userSpaceOnUse" x1="297.6602" y1="-230.7861" x2="297.6602" y2="-353.1338" gradientTransform="matrix(1 0 0 -1 -233.6602 -227.96)">
	<stop  offset="0" style="stop-color:#D9D9D9"/>
	<stop  offset="0.5369" style="stop-color:#EBEBEB"/>
	<stop  offset="1" style="stop-color:#ABABAB"/>
</linearGradient>
<path fill="url(#SVGID_1_)" d="M125.094,113.061c0,6.691-4.93,12.113-11.007,12.113H13.914c-6.079,0-11.008-5.422-11.008-12.113
	V14.94c0-6.691,4.929-12.114,11.008-12.114h100.173c6.077,0,11.007,5.423,11.007,12.114V113.061z"/>
<rect x="37.5" y="37.5" fill="#066BB7" stroke="#0F0F0F" stroke-width="2" stroke-miterlimit="10" width="53" height="53"/>
<g>
	<rect x="63" y="36.5" fill="#0F0F0F" width="2" height="1"/>
	<path fill="#0F0F0F" d="M65,34.685h-2V32.87h2V34.685z M65,31.056h-2v-1.815h2V31.056z M65,27.426h-2v-1.814h2V27.426z M65,23.796
		h-2v-1.815h2V23.796z"/>
	<rect x="63" y="19.167" fill="#0F0F0F" width="2" height="1"/>
</g>
<path fill="#0F0F0F" d="M125.094,20.167H124v-2h1.094V20.167z M122,20.167h-2v-2h2V20.167z M118,20.167h-2v-2h2V20.167z M114,20.167
	h-2v-2h2V20.167z M110,20.167h-2v-2h2V20.167z M106,20.167h-2v-2h2V20.167z M102,20.167h-2v-2h2V20.167z M98,20.167h-2v-2h2V20.167z
	 M94,20.167h-2v-2h2V20.167z M90,20.167h-2v-2h2V20.167z M86,20.167h-2v-2h2V20.167z M82,20.167h-2v-2h2V20.167z M78,20.167h-2v-2h2
	V20.167z M74,20.167h-2v-2h2V20.167z M70,20.167h-2v-2h2V20.167z M66,20.167h-2v-2h2V20.167z"/>
<path fill="#0F0F0F" d="M65,104.5h-2v-2h2V104.5z M65,100.5h-2v-2h2V100.5z M65,96.5h-2v-2h2V96.5z M65,92.5h-2v-2h2V92.5z"/>
<path fill="#0F0F0F" d="M64,107.167h-2v-2h2V107.167z M60,107.167h-2v-2h2V107.167z M56,107.167h-2v-2h2V107.167z M52,107.167h-2v-2
	h2V107.167z M48,107.167h-2v-2h2V107.167z M44,107.167h-2v-2h2V107.167z M40,107.167h-2v-2h2V107.167z M36,107.167h-2v-2h2V107.167z
	 M32,107.167h-2v-2h2V107.167z M28,107.167h-2v-2h2V107.167z M24,107.167h-2v-2h2V107.167z M20,107.167h-2v-2h2V107.167z
	 M16,107.167h-2v-2h2V107.167z M12,107.167h-2v-2h2V107.167z M8,107.167H6v-2h2V107.167z M4,107.167H2.906v-2H4V107.167z"/>
<g>
	<rect x="21.5" y="63" fill="#0F0F0F" width="16" height="2"/>
	<rect x="20.5" y="29.333" fill="#0F0F0F" width="2" height="35.667"/>
	<polygon fill="#0F0F0F" points="26.5,29.333 15.833,29.333 12.833,19.167 29.5,19.167 	"/>
	<rect x="15" y="15" fill="#0F0F0F" width="1" height="6"/>
	<rect x="26" y="15" fill="#0F0F0F" width="1" height="6"/>
	<rect x="21" y="15" fill="#0F0F0F" width="1" height="6"/>
</g>
<g>
	<rect x="91.5" y="63" fill="#0F0F0F" width="16" height="2"/>
	<rect x="106.5" y="63" fill="#0F0F0F" width="2" height="35.666"/>
	<polygon fill="#0F0F0F" points="102.5,98.666 113.166,98.666 116.166,108.833 99.5,108.833 	"/>
	<rect x="113" y="107" fill="#0F0F0F" width="1" height="6"/>
	<rect x="102" y="107" fill="#0F0F0F" width="1" height="6"/>
	<rect x="107" y="107" fill="#0F0F0F" width="1" height="6"/>
</g>
</svg>
