<?xml version="1.0" encoding="utf-8"?>
<!-- Generator: Adobe Illustrator 16.0.0, SVG Export Plug-In . SVG Version: 6.00 Build 0)  -->
<!DOCTYPE svg PUBLIC "-//W3C//DTD SVG 1.1//EN" "http://www.w3.org/Graphics/SVG/1.1/DTD/svg11.dtd">
<svg version="1.1" id="图层_1" xmlns="http://www.w3.org/2000/svg" xmlns:xlink="http://www.w3.org/1999/xlink" x="0px" y="0px"
	 width="128px" height="128px" viewBox="0 0 128 128" enable-background="new 0 0 128 128" xml:space="preserve">
<linearGradient id="SVGID_1_" gradientUnits="userSpaceOnUse" x1="297.6602" y1="-230.7861" x2="297.6602" y2="-353.1338" gradientTransform="matrix(1 0 0 -1 -233.6602 -227.96)">
	<stop  offset="0" style="stop-color:#D9D9D9"/>
	<stop  offset="0.5369" style="stop-color:#EBEBEB"/>
	<stop  offset="1" style="stop-color:#ABABAB"/>
</linearGradient>
<path fill="url(#SVGID_1_)" d="M125.094,113.061c0,6.691-4.93,12.113-11.007,12.113H13.914c-6.079,0-11.008-5.422-11.008-12.113
	V14.94c0-6.691,4.929-12.114,11.008-12.114h100.173c6.077,0,11.007,5.423,11.007,12.114V113.061z"/>
<rect x="49.25" y="49.25" fill="#0F0F0F" width="29.5" height="29.5"/>
<g>
	<rect x="63.333" y="22.583" fill="#0F0F0F" width="2" height="35.667"/>
	<polygon fill="#0037A5" points="69.333,22.583 58.667,22.583 55.667,12.417 72.333,12.417 	"/>
	<rect x="57.833" y="8.25" fill="#0037A5" width="1" height="6"/>
	<rect x="68.833" y="8.25" fill="#0037A5" width="1" height="6"/>
	<rect x="63.833" y="8.25" fill="#0037A5" width="1" height="6"/>
</g>
<g>
	<rect x="62.667" y="64" fill="#0F0F0F" width="2" height="35.666"/>
	<polygon fill="#0037A5" points="58.667,99.666 69.333,99.666 72.333,109.833 55.667,109.833 	"/>
	<rect x="69.167" y="108" fill="#0037A5" width="1" height="6"/>
	<rect x="58.167" y="108" fill="#0037A5" width="1" height="6"/>
	<rect x="63.167" y="108" fill="#0037A5" width="1" height="6"/>
</g>
<g>
	<rect x="67.542" y="63.625" fill="#0F0F0F" width="35.666" height="2"/>
	<polygon fill="#0037A5" points="103.208,69.625 103.208,58.959 113.375,55.959 113.375,72.625 	"/>
	<rect x="111.542" y="58.125" fill="#0037A5" width="6" height="1"/>
	<rect x="111.542" y="69.125" fill="#0037A5" width="6" height="1"/>
	<rect x="111.542" y="64.125" fill="#0037A5" width="6" height="1"/>
</g>
<g>
	<rect x="26.126" y="62.959" fill="#0F0F0F" width="35.666" height="2"/>
	<polygon fill="#0037A5" points="26.126,58.959 26.126,69.625 15.959,72.625 15.959,55.959 	"/>
	<rect x="11.792" y="69.459" fill="#0037A5" width="6" height="1"/>
	<rect x="11.792" y="58.459" fill="#0037A5" width="6" height="1"/>
	<rect x="11.792" y="63.459" fill="#0037A5" width="6" height="1"/>
</g>
</svg>
