<?xml version="1.0" encoding="utf-8"?>
<!-- Generator: Adobe Illustrator 16.0.0, SVG Export Plug-In . SVG Version: 6.00 Build 0)  -->
<!DOCTYPE svg PUBLIC "-//W3C//DTD SVG 1.1//EN" "http://www.w3.org/Graphics/SVG/1.1/DTD/svg11.dtd">
<svg version="1.1" id="图层_1" xmlns="http://www.w3.org/2000/svg" xmlns:xlink="http://www.w3.org/1999/xlink" x="0px" y="0px"
	 width="256px" height="256px" viewBox="0 0 256 256" enable-background="new 0 0 256 256" xml:space="preserve">
<g>
	<g>
		<linearGradient id="SVGID_1_" gradientUnits="userSpaceOnUse" x1="154.8203" y1="267.6201" x2="43.076" y2="155.8758">
			<stop  offset="0" style="stop-color:#A1A1A1"/>
			<stop  offset="1" style="stop-color:#FCFCFC"/>
		</linearGradient>
		
			<path fill-rule="evenodd" clip-rule="evenodd" fill="url(#SVGID_1_)" stroke="#999899" stroke-width="2" stroke-miterlimit="10" d="
			M191.263,192.318v36.048c0,12.626-41.337,22.858-92.314,22.858c-50.976,0-92.315-10.232-92.315-22.858v-36.048H191.263z"/>
		<linearGradient id="SVGID_2_" gradientUnits="userSpaceOnUse" x1="146.5107" y1="239.8809" x2="51.3862" y2="144.7563">
			<stop  offset="0" style="stop-color:#A1A1A1"/>
			<stop  offset="1" style="stop-color:#FCFCFC"/>
		</linearGradient>
		
			<ellipse fill-rule="evenodd" clip-rule="evenodd" fill="url(#SVGID_2_)" stroke="#999899" stroke-width="2" stroke-miterlimit="10" cx="98.948" cy="192.318" rx="92.315" ry="22.859"/>
	</g>
	<g>
		<linearGradient id="SVGID_3_" gradientUnits="userSpaceOnUse" x1="154.8193" y1="212.8174" x2="43.0764" y2="101.0745">
			<stop  offset="0" style="stop-color:#A1A1A1"/>
			<stop  offset="1" style="stop-color:#FCFCFC"/>
		</linearGradient>
		
			<path fill-rule="evenodd" clip-rule="evenodd" fill="url(#SVGID_3_)" stroke="#999899" stroke-width="2" stroke-miterlimit="10" d="
			M191.263,137.518v36.046c0,12.624-41.337,22.859-92.314,22.859c-50.976,0-92.315-10.235-92.315-22.859v-36.046H191.263z"/>
		<linearGradient id="SVGID_4_" gradientUnits="userSpaceOnUse" x1="146.5107" y1="185.0801" x2="51.3855" y2="89.9549">
			<stop  offset="0" style="stop-color:#A1A1A1"/>
			<stop  offset="1" style="stop-color:#FCFCFC"/>
		</linearGradient>
		
			<ellipse fill-rule="evenodd" clip-rule="evenodd" fill="url(#SVGID_4_)" stroke="#999899" stroke-width="2" stroke-miterlimit="10" cx="98.948" cy="137.518" rx="92.315" ry="22.858"/>
	</g>
	<g>
		<linearGradient id="SVGID_5_" gradientUnits="userSpaceOnUse" x1="154.8203" y1="158.0117" x2="43.0774" y2="46.2688">
			<stop  offset="0" style="stop-color:#A1A1A1"/>
			<stop  offset="1" style="stop-color:#FCFCFC"/>
		</linearGradient>
		
			<path fill-rule="evenodd" clip-rule="evenodd" fill="url(#SVGID_5_)" stroke="#999899" stroke-width="2" stroke-miterlimit="10" d="
			M191.263,82.711v36.047c0,12.626-41.337,22.86-92.314,22.86c-50.976,0-92.315-10.233-92.315-22.86V82.711H191.263z"/>
		<linearGradient id="SVGID_6_" gradientUnits="userSpaceOnUse" x1="146.5107" y1="130.2754" x2="51.3855" y2="35.1502">
			<stop  offset="0" style="stop-color:#A1A1A1"/>
			<stop  offset="1" style="stop-color:#FCFCFC"/>
		</linearGradient>
		
			<ellipse fill-rule="evenodd" clip-rule="evenodd" fill="url(#SVGID_6_)" stroke="#999899" stroke-width="2" stroke-miterlimit="10" cx="98.948" cy="82.711" rx="92.315" ry="22.859"/>
	</g>
	<g>
		<linearGradient id="SVGID_7_" gradientUnits="userSpaceOnUse" x1="154.8203" y1="103.2109" x2="43.0767" y2="-8.5326">
			<stop  offset="0" style="stop-color:#A1A1A1"/>
			<stop  offset="1" style="stop-color:#FCFCFC"/>
		</linearGradient>
		
			<path fill-rule="evenodd" clip-rule="evenodd" fill="url(#SVGID_7_)" stroke="#999899" stroke-width="2" stroke-miterlimit="10" d="
			M191.263,27.91v36.047c0,12.625-41.337,22.859-92.314,22.859c-50.976,0-92.315-10.234-92.315-22.859V27.91H191.263z"/>
		<linearGradient id="SVGID_8_" gradientUnits="userSpaceOnUse" x1="146.5107" y1="75.4727" x2="51.3855" y2="-19.6525">
			<stop  offset="0" style="stop-color:#A1A1A1"/>
			<stop  offset="1" style="stop-color:#FCFCFC"/>
		</linearGradient>
		
			<ellipse fill-rule="evenodd" clip-rule="evenodd" fill="url(#SVGID_8_)" stroke="#999899" stroke-width="2" stroke-miterlimit="10" cx="98.948" cy="27.91" rx="92.315" ry="22.859"/>
	</g>
</g>
<linearGradient id="SVGID_9_" gradientUnits="userSpaceOnUse" x1="243.9814" y1="245.3672" x2="101.5878" y2="102.9736">
	<stop  offset="0" style="stop-color:#1A1A1A"/>
	<stop  offset="1" style="stop-color:#888888"/>
</linearGradient>
<path opacity="0.7" fill-rule="evenodd" clip-rule="evenodd" fill="url(#SVGID_9_)" stroke="#1A1A1A" stroke-width="2" stroke-miterlimit="10" d="
	M249.839,231.225c0,11.046-8.954,20-20,20H115.729c-11.046,0-20-8.954-20-20V117.115c0-11.046,8.954-20,20-20h114.109
	c11.046,0,20,8.954,20,20V231.225z"/>
<g>
	<circle fill-rule="evenodd" clip-rule="evenodd" fill="#46A2BB" cx="172.784" cy="129.125" r="16.96"/>
	<circle fill-rule="evenodd" clip-rule="evenodd" fill="#46A2BB" cx="146.784" cy="175.125" r="16.96"/>
	<circle fill-rule="evenodd" clip-rule="evenodd" fill="#46A2BB" cx="198.784" cy="175.125" r="16.96"/>
	<circle fill-rule="evenodd" clip-rule="evenodd" fill="#46A2BB" cx="120.784" cy="222.125" r="16.96"/>
	<circle fill-rule="evenodd" clip-rule="evenodd" fill="#46A2BB" cx="172.284" cy="222.125" r="16.96"/>
	<circle fill-rule="evenodd" clip-rule="evenodd" fill="#46A2BB" cx="223.784" cy="222.125" r="16.96"/>
	
		<line fill="none" stroke="#46A2BB" stroke-width="4" stroke-miterlimit="10" x1="120.784" y1="222.125" x2="172.783" y2="129.125"/>
	
		<line fill="none" stroke="#46A2BB" stroke-width="4" stroke-miterlimit="10" x1="172.783" y1="129.125" x2="223.783" y2="222.125"/>
	
		<line fill="none" stroke="#46A2BB" stroke-width="4" stroke-miterlimit="10" x1="120.784" y1="222.125" x2="223.783" y2="222.125"/>
</g>
</svg>
