<?xml version="1.0" encoding="utf-8"?>
<!-- Generator: Adobe Illustrator 16.0.0, SVG Export Plug-In . SVG Version: 6.00 Build 0)  -->
<!DOCTYPE svg PUBLIC "-//W3C//DTD SVG 1.1//EN" "http://www.w3.org/Graphics/SVG/1.1/DTD/svg11.dtd">
<svg version="1.1" id="图层_1" xmlns="http://www.w3.org/2000/svg" xmlns:xlink="http://www.w3.org/1999/xlink" x="0px" y="0px"
	 width="256px" height="256px" viewBox="0 0 256 256" enable-background="new 0 0 256 256" xml:space="preserve">
<g>
	<linearGradient id="SVGID_1_" gradientUnits="userSpaceOnUse" x1="33.9448" y1="222.4707" x2="238.8981" y2="17.5174">
		<stop  offset="0" style="stop-color:#FFFFFF"/>
		<stop  offset="1" style="stop-color:#CECECE"/>
	</linearGradient>
	<path fill="url(#SVGID_1_)" stroke="#999899" stroke-width="4" stroke-miterlimit="10" d="M246.273,208.185
		c0,9.214-7.471,16.684-16.684,16.684H43.252c-9.214,0-16.684-7.47-16.684-16.684V31.803c0-9.214,7.47-16.684,16.684-16.684H229.59
		c9.213,0,16.684,7.469,16.684,16.684V208.185z"/>
	<linearGradient id="SVGID_2_" gradientUnits="userSpaceOnUse" x1="51.1948" y1="15.9307" x2="190.8403" y2="257.8038">
		<stop  offset="0" style="stop-color:#FFFFFF"/>
		<stop  offset="1" style="stop-color:#CECECE"/>
	</linearGradient>
	<path fill="url(#SVGID_2_)" stroke="#999899" stroke-width="4" stroke-miterlimit="10" d="M230.869,225.058
		c0,9.214-7.471,16.684-16.684,16.684H27.849c-9.214,0-16.684-7.47-16.684-16.684V48.676c0-9.214,7.47-16.684,16.684-16.684h186.337
		c9.213,0,16.684,7.469,16.684,16.684V225.058z"/>
	<line fill="none" stroke="#999899" stroke-width="4" stroke-miterlimit="10" x1="16.22" y1="36.718" x2="32.609" y2="18.957"/>
	<line fill="none" stroke="#999899" stroke-width="4" stroke-miterlimit="10" x1="226.221" y1="36.718" x2="242.609" y2="18.957"/>
	
		<line fill="none" stroke="#999899" stroke-width="4" stroke-miterlimit="10" x1="226.221" y1="236.719" x2="242.609" y2="218.957"/>
</g>
<g>
	<g>
		<path fill="#46A2BB" d="M184.83,156.046c-0.202-0.205-0.444-0.383-0.671-0.545l-0.012-0.039l-28.996-20.729l-0.039,0.021
			c-1.93-1.425-4.659-1.282-6.429,0.481c-0.162,0.171-0.316,0.366-0.457,0.573c-0.09,0.115-0.179,0.226-0.252,0.354
			c-1.941,2.785-1.927,3.143-3.502,5.565c-2.232,3.498-4.81,8.901-7.359,15.049c-8.147-1.26-20.27-8.33-33.534-21.604
			c-13.267-13.26-20.34-25.386-21.58-33.527c6.136-2.556,11.53-5.136,15.05-7.355c2.396-1.579,2.753-1.563,5.555-3.5
			c0.113-0.087,0.229-0.162,0.355-0.25l0.011-0.016c0.183-0.133,0.389-0.279,0.559-0.458c1.758-1.757,1.899-4.48,0.489-6.433V83.6
			L83.304,54.599h-0.045c-0.177-0.239-0.343-0.468-0.553-0.684c-1.783-1.766-4.57-1.895-6.514-0.407
			c-13.882,9.525-26.449,19.979-24.799,32.357c1.76,13.278,17.588,42.527,38.279,63.222c20.697,20.688,49.961,36.525,63.222,38.268
			c12.379,1.664,22.839-10.895,32.361-24.788C186.737,160.613,186.617,157.835,184.83,156.046z M172.354,115.874l6.772-1.766
			c-4.878-12.148-12.371-23.464-21.691-32.786c-9.336-9.338-20.637-16.814-32.783-21.689l-1.764,6.774
			c11.069,4.36,21.37,11.113,29.861,19.603C161.243,94.5,167.99,104.804,172.354,115.874z M128.656,79.723l-2.317,6.749
			c5.87,2.526,11.725,5.773,16.272,10.32c4.551,4.555,7.869,10.477,10.386,16.345l5.834-2.826
			c-2.939-6.97-6.408-13.108-11.739-18.439C141.872,86.646,135.557,82.669,128.656,79.723z"/>
	</g>
</g>
<g>
	<path fill="#46A2BB" d="M115.366,194.157h-2.338v18.193h2.338v4.518h-10.441v-4.518h2.303v-18.193h-2.303v-4.518h10.441V194.157z"
		/>
	<path fill="#46A2BB" d="M125.122,207.376v9.492h-5.801V189.64h9.369c6.773,0,10.16,2.871,10.16,8.613
		c0,2.789-1.022,5.024-3.067,6.706s-4.603,2.487-7.673,2.417H125.122z M125.122,194.14v8.789h2.514c3.41,0,5.115-1.482,5.115-4.447
		c0-2.895-1.688-4.342-5.063-4.342H125.122z"/>
</g>
</svg>
