<?xml version="1.0" encoding="utf-8"?>
<!-- Generator: Adobe Illustrator 16.0.0, SVG Export Plug-In . SVG Version: 6.00 Build 0)  -->
<!DOCTYPE svg PUBLIC "-//W3C//DTD SVG 1.1//EN" "http://www.w3.org/Graphics/SVG/1.1/DTD/svg11.dtd">
<svg version="1.1" id="图层_1" xmlns="http://www.w3.org/2000/svg" xmlns:xlink="http://www.w3.org/1999/xlink" x="0px" y="0px"
	 width="512px" height="512px" viewBox="0 0 512 512" enable-background="new 0 0 512 512" xml:space="preserve">
<path fill="#133562" stroke="#1666A4" stroke-width="2" stroke-miterlimit="10" d="M511.192,458.872
	c0,28.9-23.424,52.323-52.322,52.323H53.328C24.427,511.195,1,487.772,1,458.872V53.333C1,24.433,24.427,1,53.328,1H458.87
	c28.898,0,52.322,23.433,52.322,52.333V458.872z"/>
<g>
	<path fill="#FFFFFF" d="M350.791,246.4l-6.136-14.092c-1.975,4.994-4.035,9.79-6.179,14.388l5.883,12.652
		C346.56,255.202,348.703,250.886,350.791,246.4z"/>
	<path fill="#FFFFFF" d="M317.275,224.987v38.636c3.526-5.473,6.841-11.298,9.945-17.477
		C323.892,238.755,320.576,231.702,317.275,224.987z"/>
	<path fill="#FFFFFF" d="M442.176,174.47c-3.947-13.729-14.301-25.445-28.266-32.459c0.416-1.771,0.688-3.574,0.789-5.405
		c1.809-33.088-50.035-62.826-115.797-66.421c-54.275-2.968-101.062,12.799-116.771,36.999c-6.173-1.84-12.711-3.018-19.518-3.39
		c-40.532-2.216-74.943,24.374-76.857,59.392c-0.344,6.284,0.399,12.407,2.056,18.247c-37.846,7.21-67.256,38.577-69.396,77.719
		c-2.249,41.125,26.37,76.98,66.196,86.339c0,0,19.659,8.853,24.773,17.776c23.114,16.924-28.725,78.906-28.725,78.906
		s74.506-35.649,78.61-59.537c2.229-5.445,0.987-7.566,3.525-7.428c30.178,1.649,57.24-4.588,73.824-15.455
		c6.973,1.339,14.159,2.238,21.519,2.642c23.645,1.292,46.09-2.629,65.674-10.548c15.666,9.847,34.141,16.006,54.148,17.1
		c60.66,3.316,112.414-41.158,115.596-99.337C495.719,230.031,474.842,194.312,442.176,174.47z M212.074,223.294h-61.953v17.097
		c0,20.285-3.752,35.518-11.256,45.703c-0.113-0.282-3.358-3.244-9.733-8.887c6.263-7.843,9.253-20.622,8.972-38.339v-26.745h30.807
		c-0.959-2.567-1.946-5.106-2.962-7.617l13.457-2.877c1.325,3.47,2.609,6.969,3.851,10.495h28.818V223.294z M288.585,285.501
		c-5.586,0-9.96-3.526-13.119-10.579c-2.935,3.498-6.122,6.855-9.563,10.071c-1.862-2.426-4.147-5.078-6.855-7.955
		c0.027-0.057,0.07-0.1,0.127-0.127l-19.424,2.835l-0.677-5.374c-8.013,1.156-15.715,2.412-23.105,3.766l-0.339-11.341l6.602-0.762
		V234.89h-5.925v-10.664h5.925v-22.174h11.087v22.174h4.74v10.664h-4.74v29.622l6.094-0.931c-0.113,0.903-0.155,2.525-0.127,4.866
		c10.015-0.959,19.142-1.96,27.38-3.005l0.254,3.979c1.805-1.918,3.513-3.894,5.12-5.925c-1.495-8.096-2.609-20.989-3.343-38.678
		h-28.015v-10.664h27.634l-0.296-12.018h11.171l0.339,12.018h7.66l-5.036-6.855l7.871-4.739c2.878,3.329,5.134,6.066,6.771,8.209
		l-5.586,3.385h8.21v10.664h-19.509c0.395,9.902,0.818,17.915,1.27,24.037c2.963-6.037,5.148-12.413,6.56-19.127l9.479,2.624
		c-2.963,11.567-7.562,22.174-13.796,31.822c1.721,6.038,3.386,9.057,4.993,9.057c1.298,0,2.003-4.542,2.116-13.627
		c3.949,1.186,6.996,2.004,9.141,2.455C299.672,277.687,295.976,285.501,288.585,285.501z M240.851,261.296v-29.369h24.205v29.369
		H240.851z M382.868,270.352c0,4.373-0.832,7.737-2.497,10.093s-3.999,3.73-7.003,4.126c-3.005,0.395-8.612,0.593-16.821,0.593
		c-0.79-4.57-1.665-8.521-2.624-11.85c4.006,0.396,8.068,0.593,12.188,0.593c3.611,0,5.417-1.777,5.417-5.332v-52.643h-54.252v7.363
		l7.956-4.147l7.49,15.361c2.229-5.05,4.33-10.311,6.306-15.785l5.713,2.624l4.527-2.031l6.855,14.854
		c2.116-5.05,4.147-10.311,6.094-15.785l9.141,3.893c-2.85,8.464-6.009,16.589-9.479,24.375l8.887,19.804l-9.564,4.74l-5.12-12.357
		c-2.736,5.417-5.601,10.664-8.591,15.742c-1.27-0.986-2.524-1.932-3.766-2.835l-4.528,2.243l-6.56-15.573
		c-3.244,6.122-6.644,11.821-10.198,17.097c-1.411-1.326-3.132-2.821-5.163-4.486v14.05h-11.341v-79.726h76.934V270.352z"/>
	<rect x="249.821" y="239.883" fill="#FFFFFF" width="6.264" height="13.457"/>
</g>
</svg>
