<?xml version="1.0" encoding="utf-8"?>
<!-- Generator: Adobe Illustrator 16.0.0, SVG Export Plug-In . SVG Version: 6.00 Build 0)  -->
<!DOCTYPE svg PUBLIC "-//W3C//DTD SVG 1.1//EN" "http://www.w3.org/Graphics/SVG/1.1/DTD/svg11.dtd">
<svg version="1.1" id="图层_1" xmlns="http://www.w3.org/2000/svg" xmlns:xlink="http://www.w3.org/1999/xlink" x="0px" y="0px"
	 width="128px" height="128px" viewBox="0 0 128 128" enable-background="new 0 0 128 128" xml:space="preserve">
<path fill="#1D81EF" d="M127.98,114.814c0,7.25-5.877,13.125-13.125,13.125H13.146c-7.25,0-13.126-5.875-13.126-13.125V13.104
	c0-7.248,5.876-13.128,13.126-13.128h101.709c7.248,0,13.125,5.88,13.125,13.128V114.814L127.98,114.814z"/>
<path opacity="0.2" d="M102.313,42.942c-0.225-0.427-0.572-0.775-1-1c-0.225-0.427-0.572-0.775-1-1
	c-0.396-0.754-1.179-1.278-2.088-1.278H29.775c-1.303,0-2.366,1.063-2.366,2.363v1v42.13v1c0,0.909,0.523,1.691,1.278,2.087
	c0.224,0.428,0.572,0.776,1,1c0.224,0.428,0.572,0.776,1,1c0.177,0.338,26.231,26.584,37.41,37.736h46.758
	c7.248,0,13.125-5.875,13.125-13.125V68.779C115.924,56.5,102.547,43.065,102.313,42.942z"/>
<g>
	<path fill="#FFFFFF" d="M98.225,39.664H29.775c-1.303,0-2.365,1.063-2.365,2.363v43.131c0,1.303,1.063,2.365,2.365,2.365h9.014
		l2.543-10.445l0.295-1.205h1.232h43.408h1.238l0.291,1.213l2.5,10.438h7.928c1.303,0,2.365-1.063,2.365-2.365V42.027
		C100.59,40.727,99.527,39.664,98.225,39.664z M30.645,84.604c-0.981,0-1.775-0.793-1.775-1.775s0.794-1.775,1.775-1.775
		c0.982,0,1.775,0.793,1.775,1.775S31.627,84.604,30.645,84.604z M30.645,44.322c-0.981,0-1.775-0.796-1.775-1.778
		c0-0.979,0.794-1.775,1.775-1.775c0.982,0,1.775,0.796,1.775,1.775C32.42,43.526,31.627,44.322,30.645,44.322z M94.506,74.723
		H33.707V51.767l4.973-6.121h55.826V74.723z M97.186,84.604c-0.982,0-1.775-0.793-1.775-1.775s0.793-1.775,1.775-1.775
		s1.775,0.793,1.775,1.775S98.168,84.604,97.186,84.604z M97.186,44.322c-0.982,0-1.775-0.796-1.775-1.778
		c0-0.979,0.793-1.775,1.775-1.775s1.775,0.796,1.775,1.775C98.961,43.526,98.168,44.322,97.186,44.322z"/>
	<path fill="#FFFFFF" d="M81.762,63.094c0.754,0,1.439-0.309,1.936-0.801c0.496-0.497,0.801-1.182,0.801-1.936
		c0-0.758-0.305-1.441-0.801-1.936c-0.496-0.496-1.182-0.801-1.936-0.801s-1.439,0.305-1.936,0.801
		c-0.496,0.494-0.801,1.178-0.801,1.936c0,0.754,0.305,1.439,0.801,1.936C80.322,62.785,81.008,63.094,81.762,63.094z"/>
	<path fill="#FFFFFF" d="M46.52,66.352h35.934c3.279,0,5.965-2.684,5.965-5.963c0-3.279-2.686-5.964-5.965-5.964H46.52
		c-3.279,0-5.963,2.685-5.963,5.964C40.557,63.668,43.24,66.352,46.52,66.352z M78.266,56.861c0.893-0.896,2.131-1.449,3.496-1.449
		s2.604,0.553,3.496,1.449c0.893,0.893,1.449,2.131,1.449,3.496s-0.557,2.602-1.449,3.497c-0.893,0.896-2.131,1.449-3.496,1.449
		s-2.604-0.553-3.496-1.449c-0.896-0.895-1.449-2.131-1.449-3.497S77.369,57.753,78.266,56.861z M55.24,56.983h18.086v5.706H55.24
		V56.983z M43.515,56.861c0.896-0.896,2.134-1.449,3.497-1.449c1.365,0,2.602,0.553,3.498,1.449
		c0.893,0.893,1.447,2.131,1.447,3.496s-0.555,2.602-1.447,3.497c-0.896,0.896-2.133,1.449-3.498,1.449
		c-1.363,0-2.602-0.553-3.497-1.449c-0.896-0.895-1.449-2.131-1.449-3.497S42.619,57.753,43.515,56.861z"/>
	<path fill="#FFFFFF" d="M47.012,63.094c0.756,0,1.44-0.309,1.938-0.801c0.492-0.497,0.799-1.182,0.799-1.936
		c0-0.758-0.307-1.441-0.799-1.936c-0.497-0.496-1.182-0.801-1.938-0.801s-1.439,0.305-1.934,0.801
		c-0.496,0.494-0.804,1.178-0.804,1.936c0,0.754,0.308,1.439,0.804,1.936C45.572,62.785,46.256,63.094,47.012,63.094z"/>
	<path fill="#FFFFFF" d="M44.142,78.164l-2.405,10.172h45.621l-2.373-10.172H44.142z M47.486,86.646
		c-0.664,0-1.201-0.539-1.201-1.201c0-0.664,0.537-1.199,1.201-1.199c0.663,0,1.201,0.535,1.201,1.199
		C48.688,86.107,48.149,86.646,47.486,86.646z M50.461,83.775c-0.662,0-1.199-0.537-1.199-1.201c0-0.66,0.537-1.197,1.199-1.197
		s1.197,0.537,1.197,1.197C51.658,83.238,51.123,83.775,50.461,83.775z M78.383,83.775c-0.66,0-1.197-0.537-1.197-1.201
		c0-0.66,0.537-1.197,1.197-1.197c0.664,0,1.201,0.537,1.201,1.197C79.584,83.238,79.047,83.775,78.383,83.775z M81.357,86.646
		c-0.664,0-1.199-0.539-1.199-1.201c0-0.664,0.535-1.199,1.199-1.199c0.662,0,1.201,0.535,1.201,1.199
		C82.559,86.107,82.02,86.646,81.357,86.646z"/>
</g>
<rect x="23.41" y="31.5" fill="#FFFFFF" width="65.09" height="4"/>
<rect x="20.41" y="31.557" fill="#FFFFFF" width="4" height="36.193"/>
</svg>
