<?xml version="1.0" encoding="utf-8"?>
<!-- Generator: Adobe Illustrator 16.0.0, SVG Export Plug-In . SVG Version: 6.00 Build 0)  -->
<!DOCTYPE svg PUBLIC "-//W3C//DTD SVG 1.1//EN" "http://www.w3.org/Graphics/SVG/1.1/DTD/svg11.dtd">
<svg version="1.1" id="图层_1" xmlns="http://www.w3.org/2000/svg" xmlns:xlink="http://www.w3.org/1999/xlink" x="0px" y="0px"
	 width="128px" height="128px" viewBox="0 0 128 128" enable-background="new 0 0 128 128" xml:space="preserve">
<linearGradient id="SVGID_1_" gradientUnits="userSpaceOnUse" x1="297.6602" y1="-230.7861" x2="297.6602" y2="-353.1338" gradientTransform="matrix(1 0 0 -1 -233.6602 -227.96)">
	<stop  offset="0" style="stop-color:#D9D9D9"/>
	<stop  offset="0.5369" style="stop-color:#EBEBEB"/>
	<stop  offset="1" style="stop-color:#ABABAB"/>
</linearGradient>
<path fill="url(#SVGID_1_)" d="M125.094,113.061c0,6.691-4.93,12.113-11.007,12.113H13.914c-6.079,0-11.008-5.422-11.008-12.113
	V14.94c0-6.691,4.929-12.114,11.008-12.114h100.173c6.077,0,11.007,5.423,11.007,12.114V113.061z"/>
<linearGradient id="SVGID_2_" gradientUnits="userSpaceOnUse" x1="24.1606" y1="38.897" x2="92.2632" y2="106.9995">
	<stop  offset="0" style="stop-color:#5078EB"/>
	<stop  offset="1" style="stop-color:#003A7F"/>
</linearGradient>
<path fill="url(#SVGID_2_)" d="M71.496,56.464c5.946-4.184,9.836-11.097,9.836-18.92c0-12.77-10.352-23.122-23.12-23.122
	c-12.77,0-23.123,10.352-23.123,23.122c0,7.823,3.892,14.736,9.839,18.92C30.618,61.84,20.434,75.647,20.434,91.838
	c0,5.021,0.98,9.811,2.759,14.192c10.263,6.064,22.234,9.548,35.019,9.548c12.784,0,24.755-3.483,35.02-9.548
	c1.778-4.382,2.759-9.172,2.759-14.192C95.99,75.647,85.807,61.84,71.496,56.464z"/>
<linearGradient id="SVGID_3_" gradientUnits="userSpaceOnUse" x1="88.3721" y1="64.4058" x2="103.9484" y2="79.9821">
	<stop  offset="0" style="stop-color:#FFEC54"/>
	<stop  offset="1" style="stop-color:#D47C00"/>
</linearGradient>
<polygon fill="url(#SVGID_3_)" points="83.153,98.861 68.891,83.886 109.165,45.525 123.428,60.501 "/>
<polygon fill="#D3D3D3" points="67.658,85.062 61.821,104.9 81.918,100.035 "/>
</svg>
