<?xml version="1.0" encoding="utf-8"?>
<!-- Generator: Adobe Illustrator 16.0.0, SVG Export Plug-In . SVG Version: 6.00 Build 0)  -->
<!DOCTYPE svg PUBLIC "-//W3C//DTD SVG 1.1//EN" "http://www.w3.org/Graphics/SVG/1.1/DTD/svg11.dtd">
<svg version="1.1" id="图层_1" xmlns="http://www.w3.org/2000/svg" xmlns:xlink="http://www.w3.org/1999/xlink" x="0px" y="0px"
	 width="128px" height="128px" viewBox="0 0 128 128" enable-background="new 0 0 128 128" xml:space="preserve">
<linearGradient id="SVGID_1_" gradientUnits="userSpaceOnUse" x1="63.9995" y1="2.8257" x2="63.9995" y2="125.1743">
	<stop  offset="0" style="stop-color:#D9D9D9"/>
	<stop  offset="0.5369" style="stop-color:#EBEBEB"/>
	<stop  offset="1" style="stop-color:#ABABAB"/>
</linearGradient>
<path fill="url(#SVGID_1_)" d="M125.094,113.061c0,6.691-4.93,12.113-11.007,12.113H13.914c-6.079,0-11.008-5.422-11.008-12.113
	V14.94c0-6.691,4.929-12.114,11.008-12.114h100.173c6.077,0,11.007,5.423,11.007,12.114V113.061z"/>
<polygon fill="#0073AD" points="107.211,39.676 100.699,33.165 87.15,46.713 80.271,39.833 93.819,26.285 86.912,19.377 
	109.232,17.36 "/>
<polygon fill="#0073AD" points="39.858,19.51 33.346,26.022 46.895,39.571 40.016,46.45 26.467,32.901 19.559,39.809 17.542,17.488 
	"/>
<polygon fill="#0073AD" points="20.399,87.89 26.911,94.401 40.459,80.854 47.338,87.732 33.79,101.28 40.698,108.188 
	18.377,110.206 "/>
<polygon fill="#0073AD" points="85.837,108.087 92.349,101.575 78.8,88.026 85.679,81.147 99.228,94.696 106.136,87.788 
	108.152,110.109 "/>
</svg>
