<?xml version="1.0" encoding="utf-8"?>
<!-- Generator: Adobe Illustrator 16.0.0, SVG Export Plug-In . SVG Version: 6.00 Build 0)  -->
<!DOCTYPE svg PUBLIC "-//W3C//DTD SVG 1.1//EN" "http://www.w3.org/Graphics/SVG/1.1/DTD/svg11.dtd">
<svg version="1.1" id="图层_1" xmlns="http://www.w3.org/2000/svg" xmlns:xlink="http://www.w3.org/1999/xlink" x="0px" y="0px"
	 width="128px" height="128px" viewBox="0 0 128 128" enable-background="new 0 0 128 128" xml:space="preserve">
<linearGradient id="SVGID_1_" gradientUnits="userSpaceOnUse" x1="28.3486" y1="-15.8618" x2="99.6525" y2="55.442">
	<stop  offset="0" style="stop-color:#009DEB"/>
	<stop  offset="1" style="stop-color:#001E71"/>
</linearGradient>
<path fill="url(#SVGID_1_)" d="M114.087,2.826H13.914c-6.079,0-11.008,5.423-11.008,12.114V30h122.188V14.94
	C125.094,8.249,120.164,2.826,114.087,2.826z"/>
<linearGradient id="SVGID_2_" gradientUnits="userSpaceOnUse" x1="214.9424" y1="-219.4521" x2="350.3127" y2="-354.8225" gradientTransform="matrix(1 0 0 -1 -233.6602 -227.96)">
	<stop  offset="0" style="stop-color:#EBEBEB"/>
	<stop  offset="1" style="stop-color:#000000"/>
</linearGradient>
<path fill="url(#SVGID_2_)" d="M2.906,113.061c0,6.691,4.929,12.113,11.008,12.113h100.173c6.077,0,11.007-5.422,11.007-12.113V30
	H2.906V113.061z"/>
<circle fill="#AFAFAF" cx="90.75" cy="17" r="6.5"/>
<circle cx="110.75" cy="17" r="6.5"/>
<g>
	<path fill="#FFFFFF" d="M11.495,40.954H9.422v-2.199h2.073V40.954z M11.495,47.677H9.422v-2.073h2.073V47.677z"/>
	<path fill="#FFFFFF" d="M21.17,48.493l-3.644-13.821h1.256l3.707,13.821H21.17z"/>
	<path fill="#FFFFFF" d="M27.892,37.499v-1.571l8.984,5.026v1.194l-8.984,5.026v-1.633l7.476-4.021L27.892,37.499z"/>
	<path fill="#FFFFFF" d="M48.75,50.692H37.818v-1.256H48.75V50.692z"/>
</g>
</svg>
