<?xml version="1.0" encoding="utf-8"?>
<!-- Generator: Adobe Illustrator 16.0.0, SVG Export Plug-In . SVG Version: 6.00 Build 0)  -->
<!DOCTYPE svg PUBLIC "-//W3C//DTD SVG 1.1//EN" "http://www.w3.org/Graphics/SVG/1.1/DTD/svg11.dtd">
<svg version="1.1" id="图层_1" xmlns="http://www.w3.org/2000/svg" xmlns:xlink="http://www.w3.org/1999/xlink" x="0px" y="0px"
	 width="128px" height="128px" viewBox="0 0 128 128" enable-background="new 0 0 128 128" xml:space="preserve">
<linearGradient id="SVGID_1_" gradientUnits="userSpaceOnUse" x1="63.9995" y1="2.8257" x2="63.9995" y2="125.1743">
	<stop  offset="0" style="stop-color:#D9D9D9"/>
	<stop  offset="0.5369" style="stop-color:#EBEBEB"/>
	<stop  offset="1" style="stop-color:#ABABAB"/>
</linearGradient>
<path fill="url(#SVGID_1_)" d="M125.094,113.061c0,6.691-4.93,12.113-11.007,12.113H13.914c-6.079,0-11.008-5.422-11.008-12.113
	V14.94c0-6.691,4.929-12.114,11.008-12.114h100.173c6.077,0,11.007,5.423,11.007,12.114V113.061z"/>
<g>
	<linearGradient id="SVGID_2_" gradientUnits="userSpaceOnUse" x1="28.75" y1="95.5" x2="99.25" y2="95.5">
		<stop  offset="0" style="stop-color:#B0B0B0"/>
		<stop  offset="0.5517" style="stop-color:#EEEEEE"/>
		<stop  offset="1" style="stop-color:#9A9A9A"/>
	</linearGradient>
	<path fill="url(#SVGID_2_)" d="M99.25,92v4c0,6.35-15.78,11.5-35.25,11.5c-19.47,0-35.25-5.15-35.25-11.5v-4h2.06
		c4.88-4.699,17.9-8.5,33.19-8.5s28.31,3.801,33.19,8.5H99.25z"/>
	<linearGradient id="SVGID_3_" gradientUnits="userSpaceOnUse" x1="64.0005" y1="103" x2="64.0005" y2="32.0005">
		<stop  offset="0" style="stop-color:#C8FFFF"/>
		<stop  offset="1" style="stop-color:#54ABFF"/>
	</linearGradient>
	<path fill="url(#SVGID_3_)" d="M99.25,32v59.5c0,6.35-15.78,11.5-35.25,11.5c-19.47,0-35.25-5.15-35.25-11.5V32H99.25z"/>
	<linearGradient id="SVGID_4_" gradientUnits="userSpaceOnUse" x1="28.75" y1="35.5" x2="99.25" y2="35.5">
		<stop  offset="0" style="stop-color:#B0B0B0"/>
		<stop  offset="0.5517" style="stop-color:#EEEEEE"/>
		<stop  offset="1" style="stop-color:#9A9A9A"/>
	</linearGradient>
	<path fill="url(#SVGID_4_)" d="M99.25,32v3.999C99.25,42.35,83.47,47.5,64,47.5c-19.47,0-35.25-5.15-35.25-11.501V32h2.06
		c4.88-4.7,17.9-8.5,33.19-8.5s28.31,3.8,33.19,8.5H99.25z"/>
	<linearGradient id="SVGID_5_" gradientUnits="userSpaceOnUse" x1="64.0005" y1="43.5" x2="64.0005" y2="20.5">
		<stop  offset="0" style="stop-color:#C8FFFF"/>
		<stop  offset="1" style="stop-color:#54ABFF"/>
	</linearGradient>
	<ellipse fill="url(#SVGID_5_)" cx="64" cy="32" rx="35.25" ry="11.5"/>
</g>
<g>
	<rect x="47.333" y="59.667" fill="#4452B7" width="18" height="1"/>
	<rect x="64.833" y="60.167" fill="#4452B7" width="1" height="30.167"/>
	<rect x="65.333" y="72.751" fill="#4452B7" width="18.334" height="1"/>
	<rect x="83.167" y="60.167" fill="#4452B7" width="1" height="13.084"/>
</g>
<circle fill="#EDCF20" cx="46.333" cy="59.667" r="6.667"/>
<rect x="54.667" y="68.001" fill="#0F79D8" width="19.333" height="10.5"/>
<rect x="59.834" y="85.167" transform="matrix(0.7071 0.7071 -0.7071 0.7071 82.9097 -19.5043)" fill="#BA4343" width="10.332" height="10.333"/>
<rect x="79" y="55.5" fill="#E2E2E2" width="9.334" height="9.333"/>
</svg>
