<?xml version="1.0" encoding="utf-8"?>
<!-- Generator: Adobe Illustrator 16.0.0, SVG Export Plug-In . SVG Version: 6.00 Build 0)  -->
<!DOCTYPE svg PUBLIC "-//W3C//DTD SVG 1.1//EN" "http://www.w3.org/Graphics/SVG/1.1/DTD/svg11.dtd">
<svg version="1.1" id="图层_1" xmlns="http://www.w3.org/2000/svg" xmlns:xlink="http://www.w3.org/1999/xlink" x="0px" y="0px"
	 width="128px" height="128px" viewBox="0 0 128 128" enable-background="new 0 0 128 128" xml:space="preserve">
<linearGradient id="SVGID_1_" gradientUnits="userSpaceOnUse" x1="63.9995" y1="2.8257" x2="63.9995" y2="125.1743">
	<stop  offset="0" style="stop-color:#D9D9D9"/>
	<stop  offset="0.5369" style="stop-color:#EBEBEB"/>
	<stop  offset="1" style="stop-color:#ABABAB"/>
</linearGradient>
<path fill="url(#SVGID_1_)" d="M125.094,113.061c0,6.691-4.93,12.113-11.007,12.113H13.914c-6.079,0-11.008-5.422-11.008-12.113
	V14.94c0-6.691,4.929-12.114,11.008-12.114h100.173c6.077,0,11.007,5.423,11.007,12.114V113.061z"/>
<linearGradient id="SVGID_2_" gradientUnits="userSpaceOnUse" x1="38.7065" y1="20.1899" x2="89.2944" y2="107.8107">
	<stop  offset="0" style="stop-color:#C4C4C4"/>
	<stop  offset="1" style="stop-color:#000000"/>
</linearGradient>
<path fill="url(#SVGID_2_)" d="M102.967,95.746c0,3.987-3.233,7.221-7.221,7.221H32.254c-3.988,0-7.221-3.233-7.221-7.221V32.254
	c0-3.988,3.233-7.221,7.221-7.221h63.492c3.987,0,7.221,3.233,7.221,7.221V95.746z"/>
</svg>
