<?xml version="1.0" encoding="utf-8"?>
<!-- Generator: Adobe Illustrator 16.0.0, SVG Export Plug-In . SVG Version: 6.00 Build 0)  -->
<!DOCTYPE svg PUBLIC "-//W3C//DTD SVG 1.1//EN" "http://www.w3.org/Graphics/SVG/1.1/DTD/svg11.dtd">
<svg version="1.1" id="图层_1" xmlns="http://www.w3.org/2000/svg" xmlns:xlink="http://www.w3.org/1999/xlink" x="0px" y="0px"
	 width="128px" height="128px" viewBox="0 0 128 128" enable-background="new 0 0 128 128" xml:space="preserve">
<linearGradient id="SVGID_1_" gradientUnits="userSpaceOnUse" x1="63.9995" y1="2.8257" x2="63.9995" y2="125.1743">
	<stop  offset="0" style="stop-color:#D9D9D9"/>
	<stop  offset="0.5369" style="stop-color:#EBEBEB"/>
	<stop  offset="1" style="stop-color:#ABABAB"/>
</linearGradient>
<path fill="url(#SVGID_1_)" d="M125.094,113.061c0,6.691-4.93,12.113-11.007,12.113H13.914c-6.079,0-11.008-5.422-11.008-12.113
	V14.94c0-6.691,4.929-12.114,11.008-12.114h100.173c6.077,0,11.007,5.423,11.007,12.114V113.061z"/>
<polygon fill="#0073AD" points="104.195,85.267 97.684,91.778 111.232,105.327 104.354,112.206 90.805,98.658 83.896,105.565 
	81.879,83.244 "/>
<polygon fill="#0073AD" points="23.337,43.587 29.849,37.075 16.3,23.526 23.179,16.647 36.728,30.196 43.636,23.288 45.652,45.609 
	"/>
<g>
	<polygon fill="#0073AD" points="84.84,23.57 91.352,30.082 104.9,16.533 111.779,23.412 98.231,36.961 105.139,43.869 
		82.817,45.887 	"/>
	<polygon fill="#0073AD" points="43.161,104.43 36.649,97.918 23.1,111.467 16.221,104.588 29.77,91.039 22.862,84.131 
		45.183,82.114 	"/>
</g>
</svg>
