<?xml version="1.0" encoding="utf-8"?>
<!-- Generator: Adobe Illustrator 16.0.0, SVG Export Plug-In . SVG Version: 6.00 Build 0)  -->
<!DOCTYPE svg PUBLIC "-//W3C//DTD SVG 1.1//EN" "http://www.w3.org/Graphics/SVG/1.1/DTD/svg11.dtd">
<svg version="1.1" id="图层_1" xmlns="http://www.w3.org/2000/svg" xmlns:xlink="http://www.w3.org/1999/xlink" x="0px" y="0px"
	 width="128px" height="128px" viewBox="0 0 128 128" enable-background="new 0 0 128 128" xml:space="preserve">
<linearGradient id="SVGID_1_" gradientUnits="userSpaceOnUse" x1="63.9995" y1="2.8257" x2="63.9995" y2="125.1743">
	<stop  offset="0" style="stop-color:#D9D9D9"/>
	<stop  offset="0.5369" style="stop-color:#EBEBEB"/>
	<stop  offset="1" style="stop-color:#ABABAB"/>
</linearGradient>
<path fill="url(#SVGID_1_)" d="M125.094,113.061c0,6.691-4.93,12.113-11.007,12.113H13.914c-6.079,0-11.008-5.422-11.008-12.113
	V14.94c0-6.691,4.929-12.114,11.008-12.114h100.173c6.077,0,11.007,5.423,11.007,12.114V113.061z"/>
<path fill="#005975" d="M95.746,104.467H32.254c-4.809,0-8.721-3.912-8.721-8.721V32.254c0-4.809,3.912-8.721,8.721-8.721h63.492
	c4.809,0,8.721,3.912,8.721,8.721v63.492C104.467,100.555,100.555,104.467,95.746,104.467z M32.254,26.533
	c-3.154,0-5.721,2.566-5.721,5.721v63.492c0,3.154,2.566,5.721,5.721,5.721h63.492c3.154,0,5.721-2.566,5.721-5.721V32.254
	c0-3.154-2.566-5.721-5.721-5.721H32.254z"/>
<polygon fill="#0DAF00" stroke="#424242" stroke-miterlimit="10" points="78.354,31.837 69.145,31.837 69.145,50.997 59.416,50.997 
	59.416,31.837 49.646,31.837 64.003,14.627 "/>
<polygon fill="#D3DD4B" stroke="#424242" stroke-miterlimit="10" points="32.025,49.646 32.025,58.855 51.186,58.855 51.186,68.584 
	32.025,68.584 32.025,78.354 14.815,63.996 "/>
<polygon fill="#DD952C" stroke="#424242" stroke-miterlimit="10" points="49.646,94.787 58.855,94.787 58.855,75.627 68.584,75.627 
	68.584,94.787 78.354,94.787 63.997,111.997 "/>
<polygon fill="#0073AD" stroke="#424242" stroke-miterlimit="10" points="94.643,78.354 94.643,69.145 75.482,69.145 75.482,59.416 
	94.643,59.416 94.643,49.646 111.853,64.004 "/>
<polygon fill="#FFFFFF" points="89.667,90.334 82.834,76.667 79.334,75.627 76.834,78.354 84.5,97.563 80,95.834 76.834,97.563 
	75.482,100.334 97,119.167 112.667,113.334 114.834,101.667 113.167,93.813 110.5,87 108,82.834 102,84.5 98.5,82.834 
	95.158,84.167 90,84 88.5,85.334 "/>
<path fill="#79726B" d="M97.545,120.813c-0.552,0.227-1.186,0.098-1.604-0.326c-0.03-0.03-1.413-1.397-6.672-5.439
	c-2.917-2.242-5.373-4.666-7.54-6.804c-1.895-1.871-3.684-3.637-5.515-5.032c-1.362-1.039-2.025-2.523-1.822-4.072
	c0.236-1.797,1.619-3.462,3.524-4.245c1.134-0.466,2.313-0.583,3.457-0.374l-5.097-12.845c-0.687-1.805-1.011-5.574,2.622-7.066
	c1.377-0.542,2.654-0.535,3.776-0.012c1.867,0.87,2.68,2.85,2.849,3.316l2.51,5.66c0.483-0.497,1.102-0.905,1.848-1.211
	c1.913-0.762,3.513-0.751,4.822,0.01c0.296,0.171,0.556,0.368,0.782,0.581c0.577-0.608,1.336-1.083,2.366-1.42
	c1.403-0.465,2.751-0.382,3.898,0.239c0.533,0.291,0.986,0.675,1.37,1.107c0.602-0.629,1.438-1.057,2.452-1.231
	c3.666-0.631,5.732,2.612,6.338,4.475l2.235,5.409c0.101,0.224,2.844,6.478,1.737,14.273c-0.754,5.319-0.893,6.555-0.919,6.833
	c0.004,0.156-0.019,0.315-0.066,0.471c-0.14,0.442-0.489,0.809-0.928,0.952L97.545,120.813L97.545,120.813z M79.033,97.612
	c-0.919,0.377-1.628,1.163-1.727,1.91c-0.066,0.503,0.16,0.945,0.691,1.352c1.979,1.51,3.833,3.34,5.797,5.277
	c2.209,2.18,4.492,4.434,7.266,6.564c3.496,2.688,5.335,4.233,6.23,5.024l14.829-6.095c0.117-0.991,0.364-2.804,0.854-6.251
	c0.988-6.968-1.501-12.646-1.526-12.702l-2.274-5.502c-0.018-0.042-0.032-0.082-0.045-0.124c-0.036-0.112-0.957-2.882-3.055-2.521
	c-0.172,0.029-0.327,0.072-0.459,0.127c-0.221,0.091-0.886,0.363-0.672,1.898c0.122,0.482,0.169,0.795,0.169,0.795
	c0.113,0.759-0.377,1.477-1.117,1.652c-0.746,0.174-1.499-0.25-1.733-0.978c-0.021-0.063-0.123-0.394-0.2-0.874
	c-0.377-1.384-1.014-2.432-1.71-2.81c-0.273-0.149-0.733-0.313-1.573-0.035c-1.123,0.375-1.791,0.872-1.369,2.318l0.593,1.291
	c0.32,0.697,0.051,1.525-0.623,1.896c-0.664,0.386-1.516,0.168-1.938-0.475c-0.05-0.074-0.478-0.736-0.781-1.658l-0.384-0.836
	c-0.06-0.129-0.099-0.266-0.119-0.405l0,0c0,0-0.202-1.129-0.934-1.545c-0.612-0.347-1.523-0.107-2.182,0.154l-0.001,0.001
	c-0.867,0.356-1.579,0.897-1.226,2.519l1.183,2.666c0.309,0.695,0.036,1.51-0.628,1.88c-0.663,0.384-1.501,0.173-1.93-0.456
	c-0.04-0.061-0.977-1.445-1.419-3.141l-4.205-9.48c-0.02-0.043-0.036-0.085-0.051-0.129c-0.119-0.343-0.6-1.329-1.338-1.668
	c-0.382-0.175-0.829-0.157-1.366,0.056l0,0c-1.934,0.795-1.141,3.045-1.044,3.3l6.597,16.62c0.259,0.654,0.018,1.401-0.575,1.781
	c-0.593,0.373-1.373,0.284-1.857-0.228C81.409,96.917,79.689,97.342,79.033,97.612L79.033,97.612z"/>
</svg>
