<?xml version="1.0" encoding="UTF-8" standalone="no"?>
<svg width="512px" height="512px" viewBox="0 0 512 512" version="1.1" xmlns="http://www.w3.org/2000/svg" xmlns:xlink="http://www.w3.org/1999/xlink" xmlns:sketch="http://www.bohemiancoding.com/sketch/ns">
    <!-- Generator: Sketch 3.2.2 (9983) - http://www.bohemiancoding.com/sketch -->
    <title>hqzykwj_b</title>
    <desc>Created with Sketch.</desc>
    <defs></defs>
    <g id="证券信息icon_o" stroke="none" stroke-width="1" fill="none" fill-rule="evenodd" sketch:type="MSPage">
        <g id="hqzykwj_b" sketch:type="MSArtboardGroup">
            <g id="Imported-Layers" sketch:type="MSLayerGroup" transform="translate(97.000000, 48.000000)" fill="#047FF6">
                <path d="M192.417,81.564 C192.417,63.626 177.133,46.511 158.895,46.511 C140.625,46.511 125.371,63.337 125.371,81.622 L125.371,105.862 L192.417,105.862 L192.417,81.564" id="Fill-1" sketch:type="MSShapeGroup"></path>
                <path d="M0.001,397.896 L317.8,397.896 L317.8,0.014 L0.001,0.014 L0.001,397.896 Z M90.391,112.298 C90.391,108.599 94.155,105.862 97.857,105.862 L107.896,105.862 L107.896,82.195 C110.804,54.66 131.426,30.89 158.91,30.89 C186.363,30.89 209.923,54.121 209.923,81.607 L209.923,105.862 L219.768,105.862 C223.469,105.862 227.409,108.599 227.409,112.298 L227.409,219.554 C227.409,223.254 223.469,225.795 219.783,225.783 L97.857,225.783 C94.155,225.783 90.391,223.254 90.391,219.554 L90.391,112.298 L90.391,112.298 Z M54.794,318.298 L263.006,318.298 L263.006,333.552 L54.794,333.552 L54.794,318.298 Z M54.794,282.93 L263.006,282.93 L263.006,298.184 L54.794,298.184 L54.794,282.93 Z M54.794,247.563 L263.006,247.563 L263.006,262.817 L54.794,262.817 L54.794,247.563 Z" id="Fill-2" sketch:type="MSShapeGroup"></path>
            </g>
            <g id="Oval-5-+-Fill-6" sketch:type="MSLayerGroup" transform="translate(389.000000, 373.000000) rotate(-270.000000) translate(-389.000000, -373.000000) translate(263.000000, 247.000000)">
                <circle id="Oval-5" fill="#FFFFFF" sketch:type="MSShapeGroup" cx="126" cy="126" r="126"></circle>
                <path d="M162.447,29.268 C160.242,28.433 158,27.671 155.726,26.986 C146.289,24.141 136.291,22.605 125.94,22.605 C123.186,22.605 120.457,22.716 117.757,22.929 C98.798,24.42 81.263,31.049 66.54,41.418 C51.559,51.969 39.492,66.394 31.812,83.225 C25.86,96.27 22.539,110.758 22.539,126.007 C22.539,130.546 22.835,135.016 23.405,139.402 C24.612,148.695 27.058,157.604 30.572,165.959 C38.715,185.325 52.59,201.709 70.064,212.974 C86.187,223.369 105.371,229.408 125.94,229.408 C182.955,229.408 229.341,183.023 229.341,126.007 C229.341,81.838 201.5,44.054 162.447,29.268 L162.447,29.268 Z M162.447,142.711 L148.273,156.807 L148.273,131.433 L80.61,131.433 C67.049,131.433 55.97,142.077 55.273,155.467 C55.454,147.422 57.231,139.774 60.314,132.827 C69.52,112.082 90.284,97.601 114.441,97.601 L148.273,97.601 L148.273,72.227 L190.563,114.75 L162.447,142.711 L162.447,142.711 Z" id="Fill-6" fill="#047FF5" sketch:type="MSShapeGroup"></path>
            </g>
        </g>
    </g>
</svg>