<?xml version="1.0" encoding="UTF-8" standalone="no"?>
<svg width="162px" height="50px" viewBox="0 0 162 50" version="1.1" xmlns="http://www.w3.org/2000/svg" xmlns:xlink="http://www.w3.org/1999/xlink" xmlns:sketch="http://www.bohemiancoding.com/sketch/ns">
    <!-- Generator: Sketch 3.2.2 (9983) - http://www.bohemiancoding.com/sketch -->
    <title>logo</title>
    <desc>Created with Sketch.</desc>
    <defs></defs>
    <g id="Page-1" stroke="none" stroke-width="1" fill="none" fill-rule="evenodd" sketch:type="MSPage">
        <g id="logo" sketch:type="MSArtboardGroup">
            <g id="Import/var/folders/83/fhn0bvf910gdblvyntlgfp9h0000gn/T/com.bohemiancoding.sketch3/Imported-Layers.pnged-Layers" sketch:type="MSLayerGroup" transform="translate(16.000000, 9.000000)">
                <path d="M117.366295,24.0303948 L121.861565,9.69227984 L118.411677,9.69227984 L115.184336,20.4404055 L111.618573,9.69227984 L107.895522,9.69227984 L112.907836,24.9123841 L117.366295,24.0303948" id="Fill-1" fill="#939393" sketch:type="MSShapeGroup"></path>
                <path d="M54.250118,10.1544615 L54.250118,24.7896308 L57.8259205,24.1090268 L57.8259205,9.4716733 L54.250118,10.1544615" id="Fill-2" fill="#939393" sketch:type="MSShapeGroup"></path>
                <path d="M55.8899339,3.83943529 C57.047008,3.83943529 57.983209,4.8179673 57.983209,6.02453221 C57.983209,7.2319708 57.047008,8.21050281 55.8899339,8.21050281 C54.7349513,8.21050281 53.7970771,7.2319708 53.7970771,6.02453221 C53.7970771,4.8179673 54.7349513,3.83943529 55.8899339,3.83943529" id="Fill-3" fill="#939393" sketch:type="MSShapeGroup"></path>
                <path d="M61.4452283,14.0602894 C61.4452283,12.3876113 61.4163642,10.9840295 61.3306085,9.72941164 L64.4199044,9.72941164 L64.5914158,11.9097033 L64.6771714,11.9097033 C65.2778795,10.7747809 66.7938725,9.40090447 69.1105307,9.40090447 C71.5418086,9.40090447 74.0588422,11.0434403 74.0588422,15.6434144 L74.0588422,24.2754646 L70.5403497,24.2754646 L70.5403497,16.0614748 C70.5403497,13.9707363 69.7969944,12.3876113 67.8806688,12.3876113 C66.4788772,12.3876113 65.5062824,13.4334174 65.1348139,14.5386343 C65.0206125,14.8667047 64.9917483,15.3149073 64.9917483,15.7329676 L64.9917483,24.2754646 L61.4452283,24.2754646 L61.4452283,14.0602894" id="Fill-4" fill="#939393" sketch:type="MSShapeGroup"></path>
                <path d="M77.7605591,14.0602894 C77.7605591,12.3876113 77.731695,10.9840295 77.6459394,9.72941164 L80.7352353,9.72941164 L80.9063283,11.9097033 L80.9925023,11.9097033 C81.5932103,10.7747809 83.108785,9.40090447 85.4258615,9.40090447 C87.8571395,9.40090447 90.3741731,11.0434403 90.3741731,15.6434144 L90.3741731,24.2754646 L86.8556805,24.2754646 L86.8556805,16.0614748 C86.8556805,13.9707363 86.1123252,12.3876113 84.1959996,12.3876113 C82.7942081,12.3876113 81.8216132,13.4334174 81.4497264,14.5386343 C81.3359433,14.8667047 81.3070792,15.3149073 81.3070792,15.7329676 L81.3070792,24.2754646 L77.7605591,24.2754646 L77.7605591,14.0602894" id="Fill-5" fill="#939393" sketch:type="MSShapeGroup"></path>
                <path d="M107.013284,16.86789 C107.013284,22.2148684 103.409454,24.6039718 99.8625156,24.6039718 C95.9152446,24.6039718 92.883677,21.7666658 92.883677,17.1072808 C92.883677,12.3277636 95.8872172,9.40090447 100.091337,9.40090447 C104.238983,9.40090447 107.013284,12.447459 107.013284,16.86789 L107.013284,16.86789 Z M96.5159527,17.0172908 C96.5159527,19.8248914 97.8315702,21.9457721 99.9767171,21.9457721 C101.978798,21.9457721 103.38059,19.8847391 103.38059,16.9574431 C103.38059,14.6875984 102.408413,12.0888096 100.005581,12.0888096 C97.5174116,12.0888096 96.5159527,14.5980452 96.5159527,17.0172908 L96.5159527,17.0172908 Z" id="Fill-6" fill="#939393" sketch:type="MSShapeGroup"></path>
                <path d="M131.32439,24.2754646 L131.095151,22.6626342 L131.009395,22.6626342 C130.15142,23.7975566 128.692737,24.6039718 126.891031,24.6039718 C124.087866,24.6039718 122.514563,22.4835279 122.514563,20.2735308 C122.514563,16.5992305 125.632305,14.7474461 130.780574,14.7771515 L130.780574,14.5386343 C130.780574,13.5828182 130.279426,12.0923043 127.960676,12.1075939 C127.116087,12.1132729 125.24494,12.6794235 124.245991,13.1206366 L123.515604,10.5777639 C124.695267,10.079761 126.814478,9.40090447 128.549671,9.40090447 C133.011476,9.40090447 134.298648,12.3579059 134.298648,15.5241558 L134.298648,20.7807075 C134.298648,22.095173 134.355958,23.3794963 134.499023,24.2754646 L131.32439,24.2754646 L131.32439,24.2754646 Z M130.866748,17.1666917 C128.377742,17.1072808 126.004192,17.674742 126.004192,19.8847391 C126.004192,21.3184632 126.891031,21.9759144 128.006273,21.9759144 C129.408065,21.9759144 130.437551,21.0200983 130.752128,19.9742922 C130.837884,19.7056328 130.866748,19.4072679 130.866748,19.1683139 L130.866748,17.1666917 L130.866748,17.1666917 Z" id="Fill-7" fill="#939393" sketch:type="MSShapeGroup"></path>
                <path d="M50.7353903,23.5808816 L50.7353903,9.53807368 L50.6153324,9.53807368 L47.2168977,10.1911564 L47.2168977,18.8922281 C47.1528947,19.8908549 46.7479606,21.7705974 44.6074153,21.7946239 C41.9029742,21.8230188 42.0870351,18.560663 42.0870351,18.560663 L42.0870351,9.88667571 L38.6626646,9.90939163 L38.6626646,18.6668162 C38.6626646,22.9216831 41.1186235,24.9831529 43.9920661,24.9831529 C45.9443672,24.9831529 47.2361405,23.956568 47.8640393,23.2982431 L47.8640393,23.602287 C47.8640393,23.9452101 48.1627201,24.3514756 48.1627201,24.3514756 L51.0344894,24.3514756 C51.0344894,24.3514756 50.7353903,23.8678886 50.7353903,23.5808816" id="Fill-8" fill="#595757" sketch:type="MSShapeGroup"></path>
                <path d="M13.9207631,0.184847059 L9.35608615,2.82767059 L13.9211385,5.47049412 L18.48544,2.82767059 L13.9207631,0.184847059" id="Fill-9" fill="#0092DB" sketch:type="MSShapeGroup"></path>
                <path d="M4.79178462,21.3281882 L4.79178462,10.7568941 L0.227107692,8.11369412 L0.227107692,23.9717647" id="Fill-10" fill="#575D5E" sketch:type="MSShapeGroup"></path>
                <path d="M23.0501169,5.47087059 L18.48544,8.11369412 L23.0501169,10.7565176 L23.0501169,26.6145882 L27.6144185,23.9717647 L27.6144185,8.11369412 L23.0501169,5.47087059" id="Fill-11" fill="#0066B5" sketch:type="MSShapeGroup"></path>
                <path d="M27.6144185,8.11369412 L23.0501169,5.47087059 L18.48544,8.11369412 L23.0501169,10.7565176" id="Fill-12" fill="#0092DB" sketch:type="MSShapeGroup"></path>
                <path d="M18.48544,13.3997176 L13.9207631,16.0425412 L13.9211385,26.6142118 L4.79178462,21.3281882 L4.79178462,10.7568941 L0.227107692,8.11369412 L0.227107692,23.9717647 L13.9207631,31.9021176 L18.4858154,29.2574118 L18.48544,13.3997176" id="Fill-13" fill="#393C3D" sketch:type="MSShapeGroup"></path>
                <path d="M13.9207631,31.9021176 L18.4858154,29.2574118 L18.48544,13.3997176 L13.9207631,16.0425412 L13.9211385,26.6142118" id="Fill-14" fill="#000000" sketch:type="MSShapeGroup"></path>
            </g>
        </g>
    </g>
</svg>